<svg width="24" height="24" viewBox="0 0 24 24" fill="none" xmlns="http://www.w3.org/2000/svg">
<path fill-rule="evenodd" clip-rule="evenodd" d="M12 0C5.37258 0 0 5.37258 0 12C0 18.6274 5.37258 24 12 24C18.6274 24 24 18.6274 24 12C24 5.37258 18.6274 0 12 0ZM9.36174 5.63876C10.0444 5.6077 10.2625 5.6001 12.0007 5.6001H11.9987C13.7374 5.6001 13.9547 5.6077 14.6374 5.63876C15.3187 5.66997 15.7841 5.77783 16.1921 5.9361C16.6134 6.09944 16.9694 6.31811 17.3254 6.67411C17.6814 7.02985 17.9001 7.38692 18.0641 7.80785C18.2214 8.21479 18.3294 8.67986 18.3614 9.3612C18.3921 10.0439 18.4001 10.262 18.4001 12.0002C18.4001 13.7383 18.3921 13.9559 18.3614 14.6386C18.3294 15.3197 18.2214 15.7849 18.0641 16.1919C17.9001 16.6127 17.6814 16.9698 17.3254 17.3256C16.9698 17.6816 16.6133 17.9008 16.1925 18.0642C15.7853 18.2225 15.3197 18.3304 14.6383 18.3616C13.9557 18.3926 13.7382 18.4002 11.9999 18.4002C10.2619 18.4002 10.0439 18.3926 9.3612 18.3616C8.68 18.3304 8.21479 18.2225 7.80759 18.0642C7.38692 17.9008 7.02985 17.6816 6.67424 17.3256C6.31837 16.9698 6.0997 16.6127 5.9361 16.1918C5.77797 15.7849 5.6701 15.3198 5.63876 14.6385C5.60783 13.9558 5.6001 13.7383 5.6001 12.0002C5.6001 10.262 5.6081 10.0437 5.63863 9.36107C5.6693 8.68 5.7773 8.21479 5.93597 7.80772C6.09997 7.38692 6.31864 7.02985 6.67464 6.67411C7.03038 6.31824 7.38745 6.09957 7.80839 5.9361C8.21533 5.77783 8.6804 5.66997 9.36174 5.63876Z" fill="#0A245E"/>
<path fill-rule="evenodd" clip-rule="evenodd" d="M11.426 6.75404C11.5375 6.75387 11.6574 6.75392 11.7868 6.75398L12.0001 6.75404C13.709 6.75404 13.9115 6.76017 14.5863 6.79084C15.2103 6.81938 15.549 6.92364 15.7746 7.01124C16.0732 7.12725 16.2862 7.26591 16.5101 7.48992C16.7341 7.71392 16.8727 7.92725 16.989 8.22592C17.0766 8.45126 17.181 8.78993 17.2094 9.41394C17.2401 10.0886 17.2467 10.2913 17.2467 11.9993C17.2467 13.7073 17.2401 13.91 17.2094 14.5847C17.1809 15.2087 17.0766 15.5473 16.989 15.7727C16.873 16.0713 16.7341 16.284 16.5101 16.5079C16.2861 16.7319 16.0734 16.8705 15.7746 16.9865C15.5492 17.0745 15.2103 17.1785 14.5863 17.2071C13.9116 17.2378 13.709 17.2444 12.0001 17.2444C10.2912 17.2444 10.0887 17.2378 9.41398 17.2071C8.78997 17.1783 8.4513 17.074 8.22557 16.9864C7.9269 16.8704 7.71356 16.7317 7.48956 16.5077C7.26556 16.2837 7.12689 16.0709 7.01062 15.7721C6.92302 15.5468 6.81862 15.2081 6.79022 14.5841C6.75955 13.9094 6.75342 13.7068 6.75342 11.9977C6.75342 10.2886 6.75955 10.087 6.79022 9.41234C6.81875 8.78833 6.92302 8.44966 7.01062 8.22406C7.12662 7.92539 7.26556 7.71205 7.48956 7.48805C7.71356 7.26405 7.9269 7.12538 8.22557 7.00911C8.45117 6.92111 8.78997 6.81711 9.41398 6.78844C10.0044 6.76177 10.2332 6.75377 11.426 6.75244V6.75404ZM15.4169 7.81618C14.9929 7.81618 14.6489 8.15979 14.6489 8.58393C14.6489 9.00793 14.9929 9.35193 15.4169 9.35193C15.8409 9.35193 16.1849 9.00793 16.1849 8.58393C16.1849 8.15992 15.8409 7.81592 15.4169 7.81592V7.81618ZM8.71338 12.0006C8.71338 10.1855 10.1849 8.71394 11.9999 8.71387C13.815 8.71387 15.2862 10.1855 15.2862 12.0006C15.2862 13.8157 13.8152 15.2866 12.0001 15.2866C10.185 15.2866 8.71338 13.8157 8.71338 12.0006Z" fill="#0A245E"/>
<path d="M12.0005 9.86621C13.1787 9.86621 14.1339 10.8213 14.1339 11.9996C14.1339 13.1777 13.1787 14.1329 12.0005 14.1329C10.8223 14.1329 9.86719 13.1777 9.86719 11.9996C9.86719 10.8213 10.8223 9.86621 12.0005 9.86621Z" fill="#0A245E"/>
</svg>
