<svg width="25" height="24" viewBox="0 0 25 24" fill="none" xmlns="http://www.w3.org/2000/svg">
<path fill-rule="evenodd" clip-rule="evenodd" d="M12.4956 0C5.86819 0 0.495605 5.37258 0.495605 12C0.495605 18.6274 5.86819 24 12.4956 24C19.123 24 24.4956 18.6274 24.4956 12C24.4956 5.37258 19.123 0 12.4956 0ZM6.25641 9.93892H8.97588V18.1098H6.25641V9.93892ZM9.15499 7.41135C9.13734 6.6102 8.56443 6 7.63412 6C6.70381 6 6.09561 6.6102 6.09561 7.41135C6.09561 8.1959 6.68583 8.82367 7.59882 8.82367H7.6162C8.56443 8.82367 9.15499 8.1959 9.15499 7.41135ZM15.6522 9.74706C17.4417 9.74706 18.7833 10.9151 18.7833 13.4249L18.7832 18.1098H16.0638V13.7384C16.0638 12.6404 15.6703 11.8911 14.6859 11.8911C13.9345 11.8911 13.487 12.3962 13.2905 12.8841C13.2186 13.0589 13.2009 13.3025 13.2009 13.5467V18.11H10.4812C10.4812 18.11 10.517 10.7059 10.4812 9.93914H13.2009V11.0965C13.5619 10.5401 14.2083 9.74706 15.6522 9.74706Z" fill="#0A245E"/>
</svg>
