<svg width="44" height="57" viewBox="0 0 44 57" fill="none" xmlns="http://www.w3.org/2000/svg">
<path fill-rule="evenodd" clip-rule="evenodd" d="M21.5545 0C33.4588 0 43.1091 9.6503 43.1091 21.5545C43.1091 23.0076 42.9653 24.4271 42.6912 25.7995C40.7888 40.1358 21.6678 56.4524 21.6678 56.4524C21.6678 56.4524 5.39571 42.5668 1.38007 29.1598C0.488063 26.7948 0 24.2317 0 21.5545C0 9.6503 9.6503 0 21.5545 0Z" fill="#0A245E"/>
<path d="M29.7663 21.5555C29.7663 17.0205 26.09 13.3442 21.555 13.3442C17.0201 13.3442 13.3438 17.0205 13.3438 21.5555C13.3438 26.0904 17.0201 29.7667 21.555 29.7667C26.09 29.7667 29.7663 26.0904 29.7663 21.5555Z" fill="#F1BE48"/>
</svg>
