<svg width="43" height="66" viewBox="0 0 43 66" fill="none" xmlns="http://www.w3.org/2000/svg">
<ellipse cx="21.2411" cy="56.1556" rx="9.10345" ry="9.15807" fill="#F1BE48"/>
<path fill-rule="evenodd" clip-rule="evenodd" d="M21.2414 0.930176C32.9727 0.930176 42.4828 10.4973 42.4828 22.299C42.4828 23.7395 42.3411 25.1468 42.0709 26.5074C40.1962 40.7202 21.353 56.8961 21.353 56.8961C21.353 56.8961 5.31732 43.1303 1.36001 29.8388C0.480972 27.4941 0 24.9531 0 22.299C0 10.4973 9.51009 0.930176 21.2414 0.930176Z" fill="#0A245E"/>
<path d="M27.845 32.0103H27.7391C27.4498 32.0103 27.2153 32.2268 27.2153 32.494C27.2153 32.7612 27.4498 32.9778 27.7391 32.9778H27.845C28.1343 32.9778 28.3688 32.7612 28.3688 32.494C28.3689 32.2268 28.1343 32.0103 27.845 32.0103Z" fill="#F2F1EF"/>
<path d="M30.7031 32.0103H29.4857C29.1964 32.0103 28.9619 32.2268 28.9619 32.494C28.9619 32.7612 29.1964 32.9778 29.4857 32.9778H30.7031C30.9924 32.9778 31.2269 32.7612 31.2269 32.494C31.227 32.2268 30.9924 32.0103 30.7031 32.0103Z" fill="#F2F1EF"/>
<path d="M21.2211 20.1455C20.4706 20.1455 19.8599 20.7095 19.8599 21.4027V24.8334C19.8599 25.1005 20.0944 25.3171 20.3837 25.3171H22.0585C22.3478 25.3171 22.5823 25.1005 22.5823 24.8334V21.4027C22.5823 20.7095 21.9717 20.1455 21.2211 20.1455ZM21.5347 24.3496H20.9075V21.4027C20.9075 21.243 21.0483 21.1131 21.2211 21.1131C21.3941 21.1131 21.5347 21.243 21.5347 21.4027V24.3496H21.5347Z" fill="#F2F1EF"/>
<path d="M32.5652 26.2229L32.4923 26.2007L26.4941 24.377V17.8344C26.4941 17.6944 26.4294 17.5688 26.3266 17.4805C26.325 17.479 26.3239 17.4774 26.322 17.4759L21.7038 13.6114V12.1587H22.4239C22.7132 12.1587 22.9477 11.9422 22.9477 11.675C22.9477 11.4078 22.7132 11.1912 22.4239 11.1912H21.7038V10.5507C21.7039 10.2835 21.4694 10.0669 21.1801 10.0669C20.8908 10.0669 20.6563 10.2835 20.6563 10.5507V11.1912H19.9362C19.6469 11.1912 19.4124 11.4078 19.4124 11.675C19.4124 11.9422 19.6469 12.1587 19.9362 12.1587H20.6563V13.6117L16.0483 17.4762C16.0472 17.4772 16.0467 17.4781 16.0457 17.4791C15.942 17.5675 15.8767 17.6937 15.8767 17.8343V24.3772L9.89438 26.2006L9.89402 26.2007L9.82114 26.2229C9.60646 26.2883 9.46143 26.4735 9.46143 26.6823V33.8682C9.46143 34.1354 9.69593 34.352 9.98523 34.352H32.4015C32.6908 34.352 32.9253 34.1354 32.9253 33.8682V26.6823C32.9253 26.4735 32.7801 26.2882 32.5652 26.2229ZM15.8766 33.3846H10.5089V27.1439H15.8766L15.8766 33.3846ZM15.8766 26.1764H13.3166L15.8766 25.3961V26.1764ZM21.1805 14.479L24.6121 17.3506H17.7564L21.1805 14.479ZM23.3254 33.3846H19.0453V30.9687C19.0453 29.8963 19.8602 29.0238 20.8618 29.0238H21.5089C22.5105 29.0238 23.3254 29.8963 23.3254 30.9687V33.3846ZM25.4465 33.3846H24.3731V30.9687C24.3731 29.3628 23.0882 28.0562 21.509 28.0562H20.8618C19.2825 28.0562 17.9977 29.3628 17.9977 30.9687V33.3846H16.9243V26.6602V18.3182H25.4466L25.4465 33.3846ZM26.4941 25.3956L29.0622 26.1764H26.4941V25.3956ZM31.8777 33.3846H26.4941V27.1439H31.8776L31.8777 33.3846Z" fill="#F2F1EF"/>
</svg>
