<svg width="25" height="24" viewBox="0 0 25 24" fill="none" xmlns="http://www.w3.org/2000/svg">
<path d="M0.99707 12C0.99707 5.37258 6.36965 0 12.9971 0C19.6245 0 24.9971 5.37258 24.9971 12C24.9971 18.6274 19.6245 24 12.9971 24C6.36965 24 0.99707 18.6274 0.99707 12Z" fill="#0A245E"/>
<path d="M12.6377 9.75395L12.6629 10.1692L12.2432 10.1183C10.7155 9.92343 9.3809 9.26245 8.24774 8.15236L7.69375 7.60154L7.55106 8.0083C7.24888 8.91502 7.44194 9.87258 8.07147 10.5166C8.40722 10.8725 8.33168 10.9234 7.75251 10.7115C7.55106 10.6437 7.37479 10.5929 7.358 10.6183C7.29925 10.6776 7.5007 11.4488 7.66018 11.7538C7.87841 12.1775 8.32328 12.5927 8.81012 12.8385L9.22141 13.0334L8.73458 13.0419C8.26453 13.0419 8.24774 13.0503 8.2981 13.2283C8.46598 13.7791 9.12908 14.3638 9.86773 14.618L10.3881 14.796L9.93488 15.0672C9.26338 15.457 8.47437 15.6773 7.68536 15.6942C7.30764 15.7027 6.99707 15.7366 6.99707 15.762C6.99707 15.8468 8.02111 16.3213 8.61706 16.5077C10.4049 17.0586 12.5286 16.8213 14.1234 15.8807C15.2565 15.2112 16.3897 13.8808 16.9185 12.5927C17.2039 11.9063 17.4893 10.6522 17.4893 10.0505C17.4893 9.66073 17.5144 9.60989 17.9845 9.14382C18.2615 8.87265 18.5217 8.57606 18.5721 8.49132C18.656 8.33031 18.6476 8.33031 18.2195 8.47437C17.506 8.72859 17.4053 8.69469 17.7579 8.31336C18.0181 8.04219 18.3286 7.5507 18.3286 7.40664C18.3286 7.38122 18.2027 7.42359 18.06 7.49986C17.9089 7.5846 17.5732 7.71171 17.3214 7.78797L16.8681 7.93203L16.4568 7.65239C16.2302 7.49986 15.9112 7.33038 15.7434 7.27953C15.3153 7.16089 14.6606 7.17784 14.2745 7.31343C13.2252 7.69476 12.5621 8.67774 12.6377 9.75395Z" fill="white"/>
</svg>
