<svg width="24" height="24" viewBox="0 0 24 24" fill="none" xmlns="http://www.w3.org/2000/svg">
<path fill-rule="evenodd" clip-rule="evenodd" d="M0 12C0 18.6274 5.37258 24 12 24C18.6274 24 24 18.6274 24 12C24 5.37258 18.6274 0 12 0C5.37258 0 0 5.37258 0 12ZM19.5311 11.5408C19.5295 15.4741 16.3297 18.6747 12.3955 18.6763H12.3926C11.1984 18.6758 10.0249 18.3762 8.98267 17.8077L5.2 18.8L6.21231 15.1024C5.58787 14.0203 5.25929 12.7927 5.25982 11.5351C5.26139 7.60085 8.46241 4.4 12.3955 4.4C14.3043 4.40082 16.0959 5.14393 17.4431 6.49271C18.7903 7.84141 19.5318 9.63417 19.5311 11.5408Z" fill="#0A245E"/>
<path fill-rule="evenodd" clip-rule="evenodd" d="M6.91301 17.1045L9.1577 16.5157L9.37427 16.6442C10.2849 17.1846 11.3287 17.4705 12.3929 17.4709H12.3953C15.6642 17.4709 18.3247 14.8103 18.326 11.5401C18.3267 9.95537 17.7103 8.4653 16.5906 7.34426C15.4709 6.22321 13.9818 5.60553 12.3976 5.60498C9.12623 5.60498 6.46565 8.26532 6.46436 11.5353C6.4639 12.6559 6.77745 13.7473 7.37114 14.6916L7.51215 14.916L6.91301 17.1045ZM15.746 13.0768C15.8703 13.1369 15.9543 13.1775 15.9902 13.2373C16.0347 13.3117 16.0347 13.6686 15.8862 14.0852C15.7376 14.5016 15.0253 14.8818 14.6827 14.9329C14.3756 14.9789 13.9868 14.998 13.5597 14.8623C13.3008 14.7801 12.9687 14.6704 12.5433 14.4867C10.8718 13.765 9.74228 12.145 9.52879 11.8388C9.51384 11.8173 9.50338 11.8023 9.49754 11.7945L9.49611 11.7926C9.40175 11.6667 8.76952 10.8232 8.76952 9.95015C8.76952 9.12888 9.17295 8.69841 9.35864 8.50027C9.37136 8.48669 9.38306 8.47421 9.39354 8.46276C9.55696 8.28426 9.75013 8.23964 9.86899 8.23964C9.98783 8.23964 10.1068 8.24074 10.2107 8.24596C10.2235 8.2466 10.2369 8.24652 10.2506 8.24644C10.3545 8.24583 10.4841 8.24507 10.6119 8.55201C10.661 8.67013 10.7329 8.84524 10.8088 9.02993C10.9622 9.40344 11.1317 9.81614 11.1616 9.87587C11.2062 9.96512 11.2359 10.0692 11.1764 10.1882C11.1675 10.2061 11.1593 10.2229 11.1514 10.239C11.1067 10.3302 11.0739 10.3972 10.9981 10.4856C10.9684 10.5204 10.9376 10.5579 10.9068 10.5954C10.8454 10.6701 10.7841 10.7448 10.7307 10.798C10.6414 10.8869 10.5485 10.9834 10.6525 11.1619C10.7565 11.3404 11.1144 11.9242 11.6444 12.397C12.2142 12.9052 12.7093 13.12 12.9604 13.2289C13.0094 13.2501 13.0491 13.2674 13.0782 13.2819C13.2564 13.3712 13.3604 13.3563 13.4645 13.2373C13.5685 13.1183 13.9102 12.7167 14.029 12.5382C14.1478 12.3598 14.2667 12.3895 14.4301 12.449C14.5936 12.5085 15.4702 12.9398 15.6485 13.0291C15.6833 13.0465 15.7158 13.0622 15.746 13.0768Z" fill="#0A245E"/>
</svg>
